<svg width="572" height="597" viewBox="0 0 572 597" fill="none" xmlns="http://www.w3.org/2000/svg">
<path d="M344.865 0.815435C336.465 2.2821 324.599 5.74877 315.799 9.0821C300.999 14.8154 276.865 27.7488 271.265 32.8154C263.265 40.2821 257.399 52.0154 254.332 66.5487C251.932 78.5487 250.865 102.149 252.599 108.549C253.399 111.349 254.065 110.815 259.132 103.215C274.199 80.6821 292.465 67.7487 326.465 55.0821C346.999 47.4821 350.065 48.0154 330.465 55.7487C307.532 64.8154 297.265 70.5487 286.199 80.8154C268.599 96.8154 257.132 114.149 257.132 124.415C257.132 131.749 258.732 132.415 270.999 130.282C291.665 126.815 300.999 122.015 328.465 100.682C335.132 95.6154 344.465 89.3487 349.265 86.8154C358.199 82.1487 358.199 82.1487 375.265 82.2821C384.732 82.4154 396.065 82.9487 400.465 83.4821C407.265 84.2821 405.932 84.4154 391.665 84.6821C360.865 84.9487 352.465 88.2821 323.932 110.815C314.465 118.415 302.999 127.082 298.599 130.149C288.732 136.815 271.799 144.815 267.265 144.815C265.399 144.815 263.799 145.349 263.799 145.882C263.799 147.749 274.332 171.482 280.065 182.549C284.199 190.282 286.332 193.082 288.865 193.749C292.599 194.682 305.665 193.082 329.132 188.682C342.599 186.282 347.265 186.015 367.799 186.815C405.932 188.282 412.732 189.749 382.465 190.015C368.199 190.015 348.999 191.082 339.799 192.149C324.999 193.882 303.132 198.549 294.865 201.749C292.065 202.815 292.599 204.149 310.999 246.149L329.932 289.482H362.599C392.332 289.482 396.199 289.749 407.532 292.549C414.332 294.282 419.665 296.015 419.399 296.282C419.132 296.682 412.999 296.149 405.799 295.349C382.465 292.549 341.799 295.615 336.865 300.549C335.799 301.615 389.799 412.949 392.065 414.282C392.865 414.815 395.932 415.615 398.999 416.015C409.532 417.615 429.799 424.682 437.799 429.482C447.132 435.082 457.665 443.082 465.532 450.415L471.132 455.749L462.465 449.615C449.132 440.149 434.332 431.349 428.465 429.215C425.532 428.149 417.532 426.949 410.599 426.549C400.065 425.882 398.199 426.015 398.732 427.615C400.865 432.949 440.465 523.349 442.065 526.815C443.265 528.949 443.532 530.149 442.732 529.482C442.065 528.682 423.265 495.082 401.132 454.815C378.865 414.415 359.665 379.749 358.465 377.615L356.065 373.749L348.465 385.615C324.199 423.215 311.532 446.549 309.399 457.749C305.132 479.749 305.132 479.615 305.799 465.215C306.065 457.749 307.265 448.015 308.465 443.482C312.465 428.015 325.665 401.349 343.265 373.349C347.932 365.882 351.799 358.949 351.799 358.149C351.799 356.282 301.132 259.482 300.199 259.482C299.265 259.482 278.332 281.749 267.799 294.149C256.465 307.215 238.865 330.815 230.465 344.149C227.132 349.215 215.399 371.482 204.199 393.482C192.999 415.482 183.932 433.082 183.799 432.682C183.665 429.349 208.332 368.949 215.532 354.949C231.132 324.949 254.732 290.949 281.265 260.282L294.332 245.082L283.532 222.682C277.665 210.282 270.599 195.215 267.665 189.082L262.599 178.015L256.065 181.349C245.665 186.549 223.265 202.149 206.332 215.749C163.132 250.282 130.199 284.015 111.932 312.149C104.865 322.949 108.599 314.682 117.399 300.015C141.532 259.482 162.332 238.015 219.132 195.482C248.999 173.082 254.465 168.015 254.465 162.549C254.465 159.082 244.332 136.015 240.999 132.015C240.065 130.815 235.399 132.282 224.065 137.082C215.532 140.682 192.865 150.015 173.932 157.615C154.865 165.349 136.332 173.215 132.599 175.082C118.199 182.415 78.1988 208.549 64.1988 219.749C63.2654 220.549 62.4654 220.815 62.4654 220.415C62.4654 219.215 92.4654 194.682 108.465 182.815C135.399 162.815 156.199 152.015 207.532 131.349C222.732 125.215 231.132 121.215 230.065 120.549C226.065 118.415 204.999 112.949 191.932 110.815C175.265 108.015 156.999 108.682 139.932 112.815C133.799 114.282 128.465 115.215 128.199 114.949C127.265 114.015 155.532 105.215 165.265 103.349C176.465 101.215 198.732 102.682 215.132 106.682C230.199 110.415 230.065 110.015 210.732 98.5487C185.932 83.8821 162.465 74.1487 145.665 71.4821C134.999 69.7487 115.265 71.7487 107.132 75.3487C99.5321 78.6821 87.7988 89.7487 74.4654 106.149C59.7988 124.282 22.0654 175.082 17.1321 183.349C6.86543 200.949 1.39877 220.682 0.198766 244.815C-1.80123 287.882 11.2654 335.882 40.5988 394.149C51.3988 415.615 74.0654 454.149 75.9321 454.149C76.4654 454.149 77.2654 452.549 77.6654 450.415C80.3321 439.482 90.0654 411.882 95.1321 401.482C101.399 388.415 108.199 379.482 130.199 354.815C138.065 346.015 151.132 330.815 159.132 320.949C182.732 292.015 198.599 279.482 211.132 279.482C218.465 279.482 221.665 282.015 221.665 287.749C221.665 300.549 204.332 323.882 159.532 371.215C127.265 405.082 111.399 434.949 107.665 468.149C103.665 504.415 122.065 530.815 169.132 556.549C178.332 561.482 207.932 574.149 210.465 574.149C211.132 574.149 209.799 568.949 207.665 562.549C202.332 546.949 199.265 528.815 200.465 519.082C201.932 505.615 209.665 486.282 233.132 437.482C246.332 410.149 267.532 383.215 278.999 379.482C283.932 377.882 284.465 378.015 286.732 380.815C288.065 382.415 289.132 384.549 289.132 385.482C289.132 391.082 282.599 410.415 272.732 433.482C259.799 464.015 257.799 469.749 255.265 483.482C250.865 507.349 251.532 530.815 257.265 551.749C260.865 564.949 265.132 571.749 272.732 576.549C287.665 586.015 308.599 588.415 353.665 585.615C389.932 583.349 396.332 583.749 432.465 591.082C461.132 596.815 473.132 597.482 477.132 593.482C478.599 591.882 484.199 578.415 489.532 563.482C499.665 534.949 503.665 526.682 522.865 493.349C536.332 470.015 543.799 452.549 544.732 442.149C545.265 436.282 544.732 433.082 541.932 426.282C540.065 421.482 537.399 416.549 536.199 415.082C532.865 411.482 517.399 403.882 493.132 394.149C468.065 384.149 456.199 378.015 448.865 371.615C443.132 366.549 441.799 361.482 445.132 357.482C447.799 354.282 460.199 355.082 481.399 359.615C503.665 364.415 514.599 369.082 537.132 384.015C548.999 391.749 552.599 393.615 553.532 392.149C557.265 385.349 567.265 347.615 569.799 330.149C572.199 314.815 571.265 308.682 565.665 300.682C554.999 285.349 517.265 264.949 473.132 250.682C428.999 236.549 422.065 233.482 417.799 226.949C410.599 215.882 432.599 209.749 468.465 212.815C493.399 214.949 516.199 220.949 556.465 236.015L565.399 239.482L564.465 233.082C562.199 216.815 555.265 186.282 551.665 175.749C541.665 146.815 522.465 113.882 498.732 84.9487C483.399 66.1487 453.932 36.8154 439.799 26.4154C427.265 16.9488 406.065 6.14877 393.799 2.81544C384.599 0.282102 354.465 -0.917898 344.865 0.815435Z" fill="black"/>
</svg>
