<svg width="561" height="607" viewBox="0 0 561 607" fill="none" xmlns="http://www.w3.org/2000/svg">
<path d="M264.379 2.70375C241.179 8.70375 229.579 14.3038 228.246 20.4371C227.846 22.4371 227.179 24.8371 226.913 25.9038C226.646 26.8371 227.313 37.2371 228.513 49.1038C231.046 74.0371 229.979 87.3704 224.246 99.1038C220.379 106.97 215.846 110.037 207.979 110.037C203.579 110.037 201.979 109.237 197.979 104.837C193.046 99.3704 188.379 88.4371 186.246 77.5038C185.579 73.9038 185.046 62.0371 185.046 51.1038V31.2371L176.113 36.1704C152.246 49.3704 136.513 60.5704 133.446 66.5704C126.779 79.3704 136.246 118.57 154.513 153.77C159.579 163.77 163.713 173.104 163.446 174.57C162.913 178.17 154.113 182.57 149.579 181.504C145.179 180.304 142.246 175.104 135.179 155.77C129.046 139.104 125.846 124.704 124.379 108.037C122.779 88.4371 122.246 86.0371 119.979 86.0371C114.513 86.1704 105.713 92.0371 91.7128 104.837C73.3128 121.77 69.0461 129.104 69.0461 144.037C69.0461 149.37 70.2461 157.637 71.7128 163.104C75.7128 177.37 93.3128 217.77 103.313 235.37C107.979 243.77 112.246 252.57 112.646 254.837C113.979 262.837 106.113 265.904 97.5795 260.57C85.1795 252.97 62.9128 222.437 49.7128 195.104L41.4461 177.77L36.1128 183.237C26.5128 193.237 14.3795 217.104 11.7128 231.37C9.97947 240.17 11.9795 249.637 17.1795 256.704C26.5128 269.504 68.6461 310.17 91.7128 328.704C96.5128 332.57 108.379 341.104 118.113 347.637C127.846 354.304 138.113 361.77 140.779 364.304L145.713 368.97L142.513 371.504C138.646 374.704 134.646 374.17 122.913 368.704C113.979 364.704 67.7128 337.37 59.0461 331.104C49.8461 324.437 31.8461 305.904 21.7128 292.437L11.8461 279.504L9.84614 285.77C6.11281 297.104 1.04614 321.104 0.246139 332.037C-1.35386 353.104 4.51281 361.37 27.7128 371.237C52.2461 381.637 120.113 414.037 124.646 417.504C130.113 421.637 130.379 426.17 125.579 430.97C122.513 434.037 121.446 434.304 114.513 433.637C104.246 432.704 72.3795 422.97 58.6461 416.57C52.5128 413.77 40.2461 407.104 31.3128 401.77C22.3795 396.437 14.5128 391.77 13.8461 391.504C11.8461 390.704 14.1128 424.17 16.9128 437.37C21.3128 458.304 29.0461 470.837 42.6461 479.104C52.9128 485.237 59.8461 485.77 76.3795 481.504C99.8461 475.504 129.979 473.504 139.046 477.237C144.646 479.637 147.979 484.704 148.246 491.104C148.379 495.904 148.113 496.17 139.579 500.304C121.446 509.237 100.246 511.904 78.5128 508.17C71.5795 506.97 65.7128 506.17 65.4461 506.57C64.2461 507.77 90.6461 532.304 97.7128 536.57C111.313 544.837 123.713 543.77 147.713 532.437C173.579 520.304 203.713 498.037 225.446 474.97L235.713 464.037L231.179 474.837C217.846 506.437 211.713 532.704 211.713 558.57C211.713 574.437 214.646 603.104 216.513 606.304C217.046 607.104 225.579 603.77 230.246 601.104C230.379 600.97 229.446 597.37 227.979 593.104C222.246 576.837 220.913 552.17 224.379 531.904C227.046 517.237 235.313 491.904 242.913 476.037L248.646 464.037L249.713 469.37C252.513 485.104 260.246 514.037 264.379 525.637C273.713 550.437 281.846 562.304 294.646 568.57C307.046 574.837 321.179 574.17 337.979 566.57L345.713 563.104L336.113 560.037C320.113 555.104 309.579 546.837 303.179 534.437C300.113 528.437 300.513 525.904 305.046 519.637C308.113 515.37 309.979 514.037 312.779 514.037C318.779 514.037 327.979 520.837 338.246 533.104C343.579 539.37 349.846 545.37 352.379 546.704C358.913 549.77 370.246 551.37 385.179 551.37C396.113 551.37 398.779 550.97 404.779 547.904C413.579 543.504 421.979 534.17 428.779 521.104C433.846 511.37 440.646 491.904 439.446 490.704C439.179 490.437 435.713 490.97 431.713 492.037C405.579 498.837 377.979 496.57 356.913 486.037C349.313 482.17 342.379 475.504 342.379 472.037C342.379 463.904 379.313 467.104 439.046 480.17C458.246 484.437 461.846 484.837 475.713 484.437C493.713 483.77 499.313 481.504 506.913 472.304C515.313 462.037 525.846 435.904 528.379 418.837L529.313 412.97L518.246 416.704C501.179 422.57 487.446 424.97 466.913 425.637C444.113 426.57 436.513 425.637 432.246 421.37C427.979 417.104 427.979 410.837 432.246 408.037C441.846 401.637 464.113 396.57 495.713 393.37C522.246 390.704 535.046 388.037 545.446 382.837C556.779 377.237 559.713 371.504 559.713 355.37C559.713 348.97 559.046 340.304 558.38 335.904C556.113 323.104 551.313 303.37 550.513 303.37C550.113 303.37 542.513 309.37 533.713 316.704C516.779 330.837 511.179 333.637 502.913 332.17C497.579 331.104 490.379 324.97 490.379 321.37C490.379 313.77 503.179 303.37 518.779 298.17C530.246 294.304 538.513 289.237 546.78 280.97C557.58 270.437 560.38 263.904 560.246 250.037C560.113 240.437 559.18 236.037 554.38 221.637C551.313 212.304 548.38 204.704 547.846 204.704C547.446 204.704 544.779 209.104 542.113 214.437C535.579 226.837 527.846 235.77 517.846 242.304C507.579 248.97 501.979 249.104 495.979 242.97C493.446 240.304 491.713 237.237 491.713 235.104C491.713 229.104 502.113 221.237 516.379 216.704C524.379 214.17 526.913 212.037 530.913 204.704C538.646 190.57 536.913 181.237 522.779 159.77C518.246 152.97 513.579 144.704 512.246 141.37L509.979 135.237L507.313 139.637C485.313 175.904 470.246 191.237 456.246 191.37C451.846 191.37 447.713 187.904 447.713 184.304C447.713 180.17 457.579 171.104 472.379 161.237C497.313 144.837 513.046 128.304 513.046 118.57C513.046 112.437 508.513 101.637 501.579 91.2371C493.579 79.1038 492.113 78.0371 490.379 82.8371C485.846 94.9704 480.913 101.904 467.046 115.77C428.646 154.17 402.779 169.37 387.313 162.97C381.046 160.304 381.046 157.637 387.446 151.637C392.513 146.704 417.713 129.904 440.246 116.304C449.979 110.437 454.913 106.437 460.379 99.7704C469.579 88.5704 477.046 73.6371 477.046 66.4371C477.046 58.8371 473.313 54.8371 459.046 46.8371C452.646 43.3704 445.046 38.3038 442.113 35.6371C436.779 30.8371 431.713 22.5704 431.713 18.7038C431.713 16.9704 431.046 16.8371 428.779 17.6371C423.446 19.5038 411.446 18.8371 397.446 15.6371C389.579 13.9038 379.313 12.7038 373.046 12.7038C363.179 12.7038 361.979 12.9704 359.179 16.0371C353.846 21.9038 352.379 30.0371 352.513 54.0371C352.646 66.1704 353.713 83.3704 354.913 92.3038C357.979 115.104 357.713 124.704 354.246 129.237C351.046 133.237 346.379 133.77 343.313 130.304C339.313 125.904 334.246 112.97 331.046 98.4371C323.979 67.7704 327.713 36.1704 341.979 3.63709C342.913 1.63709 314.913 1.37042 307.446 3.37042C302.913 4.70375 302.246 5.50375 300.379 11.7704C299.179 15.6371 297.579 26.0371 296.779 35.1038C295.046 53.5038 296.379 71.6371 301.046 90.7038C304.513 104.437 304.379 110.17 300.913 114.57C293.046 124.57 284.513 111.237 277.179 76.7038C270.913 47.1038 270.246 28.7038 275.046 8.83709C276.246 4.17042 276.913 0.170419 276.779 0.0370859C276.513 -0.229581 271.046 0.970419 264.379 2.70375ZM232.779 130.97C239.979 138.97 253.046 170.17 253.046 179.637C253.046 191.37 241.446 197.504 229.579 191.904C220.646 187.637 212.246 174.704 208.246 159.104C204.646 145.104 208.379 133.77 218.379 128.57C225.046 124.97 227.579 125.37 232.779 130.97ZM306.913 134.304C312.246 139.77 322.246 162.304 323.313 171.104C323.979 176.704 323.579 178.17 321.179 180.57C319.713 182.037 316.913 183.37 315.179 183.37C300.113 183.37 282.379 145.637 291.846 133.504C295.713 128.57 301.446 128.837 306.913 134.304ZM169.713 191.37C175.179 194.704 179.446 200.037 198.779 227.104C207.179 238.97 215.179 251.504 216.513 254.837C218.646 260.437 218.646 261.37 216.913 264.57C214.513 268.97 208.513 271.904 204.246 270.837C199.579 269.637 193.046 263.37 182.379 250.17C167.046 230.704 157.046 210.57 157.046 198.704C157.046 189.104 161.713 186.437 169.713 191.37ZM441.313 192.304C448.113 198.437 440.246 206.57 407.713 227.504C374.379 248.837 370.113 250.437 362.913 244.17C360.113 241.77 359.179 239.904 359.179 236.037C359.179 231.637 360.113 230.17 366.113 224.57C374.779 216.57 391.446 204.837 401.046 200.037C419.046 190.837 436.113 187.504 441.313 192.304ZM268.779 202.837C272.513 205.504 287.313 230.304 289.179 237.237C290.379 241.637 290.246 242.97 288.113 245.77C282.246 253.637 271.446 252.304 260.779 242.304C250.113 232.437 244.379 218.037 247.579 209.77C250.379 202.17 262.379 198.304 268.779 202.837ZM488.113 247.104C495.313 253.37 482.646 267.37 464.779 272.837C455.313 275.77 450.646 275.504 447.179 271.904C443.846 268.57 444.646 266.304 451.579 259.37C458.513 252.437 468.513 246.704 476.646 244.97C482.246 243.637 484.646 244.17 488.113 247.104ZM128.513 268.57C148.913 283.637 169.713 312.704 167.179 322.704C165.313 330.304 157.713 325.37 136.113 302.304C127.313 292.97 119.179 283.904 117.979 282.037C113.846 276.037 115.713 264.704 120.913 264.704C122.246 264.704 125.713 266.437 128.513 268.57ZM438.246 272.17C444.113 279.504 440.646 284.437 422.646 294.57C401.179 306.704 376.113 313.104 367.979 308.837C365.046 307.237 364.113 302.704 366.113 299.904C368.646 296.17 378.513 290.437 397.179 281.77C429.713 266.837 433.313 265.904 438.246 272.17ZM476.246 329.504C482.513 335.637 476.913 341.104 452.113 352.837C416.513 369.904 379.579 376.17 376.379 365.904C374.513 360.037 382.913 355.237 408.379 347.237C413.579 345.637 423.446 341.904 430.379 338.97C456.646 327.77 471.579 324.704 476.246 329.504ZM208.246 345.237C228.779 360.037 241.046 380.97 227.179 377.504C223.579 376.57 201.846 360.304 193.446 352.304C189.046 348.17 187.713 345.77 187.713 342.704C187.713 333.637 193.046 334.437 208.246 345.237ZM350.246 355.504C352.913 356.437 354.646 358.17 355.179 360.304C357.179 367.904 343.179 374.837 328.246 373.637C318.246 372.837 313.046 370.037 313.046 365.37C313.046 357.77 337.846 351.237 350.246 355.504ZM412.379 411.637C416.779 413.637 418.246 419.104 415.179 421.504C408.379 426.437 372.646 428.037 363.979 423.77C357.846 420.704 356.913 417.237 361.846 415.37C365.979 413.77 391.846 410.437 401.979 410.17C405.846 410.17 410.513 410.704 412.379 411.637ZM191.179 428.17C198.113 431.637 199.579 434.437 196.513 437.904C190.913 444.037 166.646 439.77 163.713 432.17C162.913 430.037 163.313 428.704 165.446 426.837C167.846 424.837 169.979 424.57 177.179 424.97C182.113 425.37 188.379 426.837 191.179 428.17ZM298.246 441.504C304.513 444.037 306.646 448.304 302.913 450.97C295.446 456.437 274.113 448.304 276.646 440.97C277.579 438.57 291.846 438.97 298.246 441.504Z" fill="black"/>
</svg>
