<svg width="1101" height="482" viewBox="0 0 1101 482" fill="none" xmlns="http://www.w3.org/2000/svg">
<path d="M505.273 0.724446C489.437 3.1924 469.694 11.6246 437.096 30.1342C426.093 36.4069 411.697 44.4278 405.218 47.924C365.114 69.9299 323.468 100.06 295.395 127.31C290.767 131.937 287.065 135.742 287.271 135.948C288.196 136.873 296.834 131.115 304.444 124.533C308.968 120.523 320.177 112.811 329.432 107.258C359.356 89.0566 389.794 75.4828 434.011 60.4695C460.542 51.4203 501.674 37.1267 517.819 31.3682C529.85 27.0493 530.467 26.9464 543.012 26.9464C550.108 26.8436 562.756 27.2549 571.188 27.7691L586.407 28.6946L584.351 24.6841C579.312 14.9152 565.121 5.76318 549.182 2.16408C540.133 0.107458 514.734 -0.715193 505.273 0.724446Z" fill="black"/>
<path d="M375.5 6.89434C366.862 8.33398 358.43 13.4755 348.558 23.2445C337.658 34.1446 334.47 40.3145 330.152 59.2355C325.421 80.1102 323.776 82.8867 304.341 102.116C295.292 111.062 286.14 120.626 283.877 123.505C279.764 128.749 273.08 141.295 273.903 142.118C274.931 143.249 281.101 135.639 284.392 129.264C288.711 120.523 292.001 117.335 305.986 108.08C319.251 99.4425 330.152 88.5424 338.584 75.6885C345.576 64.994 367.891 42.7825 377.043 37.3324C384.652 32.8078 393.084 30.6484 406.555 29.8257C414.576 29.3116 417.558 28.6946 421.877 26.5351C424.859 24.9927 427.43 23.2445 427.533 22.7304C428.047 21.1879 414.987 13.5784 406.658 10.5963C396.272 6.89434 384.241 5.4547 375.5 6.89434Z" fill="black"/>
<path d="M647.9 14.9152C639.571 16.7661 634.121 18.7199 607.179 29.8257C592.269 35.9956 582.5 38.2579 566.15 39.6975C528.616 42.7825 524.297 43.5023 505.993 49.4665C500.029 51.3175 477.406 58.0015 455.606 64.2742C397.095 80.9329 389.897 83.7093 354.008 102.425C328.815 115.587 311.745 125.767 307.323 130.395C303.621 134.2 302.284 137.387 304.341 137.387C305.781 137.387 329.535 127.31 360.487 113.428C407.789 92.3472 410.977 91.3189 470.516 78.6706C527.588 66.5365 527.793 66.5365 556.895 65.4054C585.071 64.2742 583.425 64.4799 601.626 60.2638C608.722 58.6185 620.136 56.3562 627.129 55.2251C637.103 53.6826 640.599 52.6543 643.787 50.4948C650.677 45.7646 673.814 39.6975 685.228 39.6975C693.66 39.6975 700.242 41.5485 714.741 47.7184C728.006 53.3741 733.25 54.9166 733.25 53.0656C733.25 42.6796 699.11 17.5888 680.292 14.0925C671.552 12.4472 657.978 12.8585 647.9 14.9152Z" fill="black"/>
<path d="M811.916 48.541C794.641 50.2891 784.872 51.5231 769.241 54.0939C746.001 58.0015 737.055 58.927 712.684 60.2638C701.681 60.8808 687.799 62.0119 681.835 62.8346C658.492 66.0223 643.273 67.462 619.622 68.4903C582.397 70.1356 560.905 73.2205 503.937 84.9433C487.278 88.4396 463.318 93.2726 450.773 95.7406C438.227 98.3114 423.008 101.499 416.838 103.042C403.779 106.127 360.384 119.7 350.718 123.608C342.903 126.796 333.236 132.349 333.236 133.685C333.236 135.433 348.147 133.377 356.888 130.395C365.526 127.515 375.397 125.562 375.397 126.796C375.397 127.104 374.575 128.03 373.649 128.852C372.004 130.086 374.472 130.189 391.85 129.778C411.08 129.366 417.661 128.441 423.317 125.253C424.551 124.533 425.579 124.842 426.813 126.076C429.075 128.338 434.423 127.927 454.577 123.916C463.832 122.168 477.715 120.42 491.083 119.392C503.011 118.569 518.436 117.13 525.531 116.307C554.838 112.913 576.535 111.474 596.485 111.371C617.051 111.371 617.874 111.474 630.419 114.764C645.947 118.775 649.134 118.672 681.835 113.222C726.052 105.921 778.393 101.705 811.916 102.836C845.439 103.864 857.059 105.715 911.251 118.466C955.777 128.852 963.798 130.189 991.357 131.217C1020.97 132.349 1022.51 132.657 1064.98 144.483C1079.28 148.493 1099.95 152.503 1100.98 151.475C1101.59 150.858 1090.59 145.614 1077.22 140.267C1047.4 128.338 1004.83 117.027 956.394 108.08C940.044 105.098 934.286 103.556 925.545 99.8539C902.716 90.2905 882.356 86.5886 852.535 86.5886C834.848 86.5886 830.22 86.9999 813.459 89.8792C789.808 93.8896 766.979 95.2264 718.854 95.2264C666.719 95.1236 583.219 97.1802 562.242 98.9284C541.881 100.574 525.634 102.836 495.71 108.183C484.707 110.24 468.048 113.119 458.691 114.867C436.068 118.878 407.172 122.682 393.907 123.402L383.11 124.019L390.822 121.963C395.038 120.831 407.995 117.849 419.615 115.381C451.39 108.389 457.251 106.949 468.768 103.042C486.25 96.8717 489.849 96.3576 537.357 92.1415C598.644 86.6914 627.437 85.5603 727.081 84.4292C776.645 83.8122 783.535 83.5037 811.402 80.7272C831.557 78.7734 847.599 77.6423 859.219 77.6423C882.253 77.6423 886.983 78.6706 910.634 89.0566C925.237 95.4321 927.293 96.1519 936.137 97.1802C941.998 97.9001 941.998 97.9001 941.998 95.2264C941.998 91.5245 939.016 87.9254 932.537 83.8122C929.555 81.9612 923.386 77.5395 918.861 74.146C906.316 64.6855 904.156 63.5544 891.508 60.3666C885.029 58.7213 876.186 55.9449 871.764 54.0939C867.342 52.3458 861.07 50.392 857.882 49.8778C851.609 48.8495 818.703 47.8212 811.916 48.541Z" fill="black"/>
<path d="M734.793 114.867C693.352 120.214 660.857 122.477 610.881 123.505C548.771 124.842 528.616 126.076 468.46 132.143C425.888 136.462 407.275 136.976 375.192 134.714C366.143 133.994 356.888 134.817 356.888 136.256C356.888 137.284 372.21 139.958 392.159 142.529C423.831 146.539 440.49 146.951 520.39 146.025C608.516 145.1 628.054 145.203 658.698 147.259C706.411 150.344 727.903 150.961 742.505 149.727C757.21 148.39 762.043 148.699 777.468 151.887C782.815 153.018 792.584 154.354 799.062 154.766C808.831 155.486 812.328 156.205 819.115 158.982C827.135 162.375 827.855 162.478 847.393 163.198C858.396 163.609 873.718 164.843 881.328 165.974C901.894 169.162 912.074 169.779 915.776 168.031C918.038 167.106 924.825 166.694 941.484 166.694C962.667 166.591 965.238 166.386 981.588 163.198C1018.81 156.103 1033.52 155.383 1059.23 159.496C1067.97 160.936 1079.38 162.273 1084.42 162.581L1093.67 163.095L1089.05 160.936C1077.84 155.691 1053.78 146.642 1044.83 144.174C1029.92 140.267 1016.86 139.033 1004.31 140.472C992.18 141.809 984.159 140.986 963.49 136.359C945.186 132.143 936.856 130.703 905.493 126.076C818.806 113.428 770.475 110.24 734.793 114.867Z" fill="black"/>
<path d="M332.722 138.313C332.414 138.93 332.928 139.752 333.956 140.061C334.985 140.369 340.435 142.426 346.09 144.585C375.397 155.897 404.087 161.45 446.351 164.123C456.223 164.74 471.03 165.974 479.257 166.9C489.129 168.031 506.199 168.648 529.644 168.854C560.699 169.059 566.252 169.368 574.376 171.219C579.518 172.35 591.035 173.995 600.084 174.818C634.944 178.211 651.705 180.885 672.169 186.232C694.586 192.094 706.103 196.618 741.271 213.38C779.524 231.581 787.751 234.357 856.134 251.427C876.494 256.466 903.128 263.664 915.262 267.263C959.171 280.528 981.485 286.184 982.616 284.436C984.364 281.557 976.549 276.415 964.621 272.61C961.536 271.685 950.636 266.646 940.456 261.505C921.329 251.941 904.053 244.743 820.657 211.22C732.942 176.052 697.979 166.386 642.759 162.17C608.105 159.393 475.658 154.766 439.153 154.971C402.133 155.177 389.485 153.635 382.081 148.082C378.071 145.1 373.546 143.968 353.494 140.986C344.342 139.65 336.013 138.21 335.087 137.901C334.162 137.49 333.134 137.696 332.722 138.313Z" fill="black"/>
<path d="M309.482 142.837C310.202 143.866 311.848 144.585 313.184 144.585C314.418 144.585 320.383 146.951 326.45 149.83C356.888 164.123 386.503 171.836 462.804 185.204C547.331 200.114 610.778 217.493 647.181 235.694C660.446 242.378 670.729 249.473 695.717 268.909C707.543 278.163 723.481 289.681 730.988 294.616C738.495 299.449 755.873 310.864 769.55 319.913C796.697 337.908 823.742 354.67 824.359 354.053C824.565 353.847 822.508 350.248 819.732 346.032C814.384 337.806 808.112 331.43 793.098 318.987C787.854 314.566 775.411 301.917 765.437 290.812C735.616 257.494 722.453 245.874 693.66 226.851C662.297 206.181 623.941 193.533 563.373 183.661C539.002 179.754 488.717 173.378 453.549 169.779C398.946 164.123 392.467 162.992 347.119 150.653C330.769 146.128 315.241 142.118 312.67 141.809C308.454 141.192 308.146 141.295 309.482 142.837Z" fill="black"/>
<path d="M286.962 149.624C286.962 150.241 288.711 152.195 290.767 154.046C292.824 155.897 301.976 164.432 311.025 172.967C320.177 181.502 331.488 191.888 336.321 196.001C346.81 205.05 359.047 217.596 375.192 235.591C381.773 242.892 394.627 257.083 403.676 266.955C423.008 288.138 427.636 293.485 439.256 308.601C444.192 315.08 460.13 332.458 476.686 349.323C497.15 370.3 506.816 380.892 510.106 386.136C519.875 401.869 522.652 405.571 532.318 416.574C549.902 436.421 558.848 448.966 570.571 469.532C573.862 475.394 578.181 480.021 581.369 481.152C582.294 481.564 583.117 481.667 583.117 481.461C583.117 479.096 576.227 462.951 568.823 447.938C562.55 434.981 557.409 422.641 552.884 409.376C544.863 385.519 535.917 361.045 532.421 353.025C530.878 349.631 527.176 344.49 523.783 340.89C520.492 337.394 515.762 331.224 513.191 327.008C507.227 317.342 469.077 271.068 457.971 260.168C447.996 250.399 432.572 238.162 417.558 228.187C402.648 218.213 351.746 186.643 336.836 178.006C330.049 174.098 320.074 167.311 314.624 162.889C309.071 158.468 302.387 153.737 299.611 152.401C293.749 149.419 286.962 147.979 286.962 149.624Z" fill="black"/>
<path d="M310.614 152.401C310.614 155.383 318.12 161.45 325.524 164.535C329.535 166.18 340.64 171.219 350.204 175.743C370.256 184.998 382.493 190.037 409.229 199.6C453.652 215.642 481.519 231.478 537.871 272.611C567.281 294.102 587.95 308.19 626.306 332.767C683.377 369.375 710.113 387.884 721.939 399.093C729.548 406.394 733.765 408.862 738.392 408.862C741.271 408.862 741.58 408.554 740.963 406.497C740.551 405.263 739.009 402.384 737.466 400.121C733.148 393.643 687.285 348.192 677.207 340.376C671.757 336.16 664.251 328.859 658.698 322.484C644.815 306.236 638.234 300.169 624.249 290.606C611.704 282.071 604.403 276.21 583.631 258.214C564.916 241.967 536.431 224.485 509.489 212.865C471.648 196.515 443.06 187.466 405.835 180.062C396.169 178.109 381.773 174.715 373.855 172.453C358.944 168.237 315.55 153.635 312.465 151.784C311.025 150.961 310.614 151.064 310.614 152.401Z" fill="black"/>
<path d="M274.108 153.223C272.977 153.943 268.864 156.617 264.854 159.085C260.946 161.553 246.55 171.939 232.976 182.222C173.745 226.748 92.1998 278.986 37.9049 307.059C16.0018 318.371 8.90647 323.409 3.66207 331.224C0.474302 336.058 -0.862506 339.965 0.577133 339.965C2.94225 339.965 34.9228 343.256 36.1568 343.564C37.0823 343.873 46.0286 337.806 58.7797 328.037C70.2968 319.193 103.408 294.616 132.201 273.33C212.718 214.1 224.852 204.639 250.766 180.885C259.095 173.173 268.967 165.049 272.669 162.581C279.147 158.365 280.792 156.514 280.792 153.223C280.792 151.475 276.885 151.372 274.108 153.223Z" fill="black"/>
</svg>
