<svg width="541" height="856" viewBox="0 0 541 856" fill="none" xmlns="http://www.w3.org/2000/svg">
<path d="M263.808 1.14853C262.819 2.06154 262.743 3.05063 263.2 5.48533C264.95 14.3872 263.732 24.8107 258.558 45.0492C249.58 80.8849 247.983 114.895 253.233 163.512C256.048 190.142 256.2 200.794 254.069 219.434C253.004 228.108 252.091 243.325 251.559 260.748C250.493 292.78 251.33 313.398 254.374 333.941C255.363 340.865 257.265 353.495 258.558 362.092C262.591 389.559 263.123 418.09 259.7 427.525C258.254 431.557 257.493 439.09 255.895 464.73C254.602 484.512 252.852 498.74 250.493 508.935L249.124 514.641L248.591 511.218C247.526 504.522 247.907 478.882 249.428 461.763C251.939 432.927 251.483 418.775 247.146 392.526C245.015 379.211 243.037 363.081 240.298 336.604C237.787 311.953 237.103 306.247 233.07 277.258C229.19 248.575 228.277 241.803 226.983 229.325C225.31 213.88 221.581 184.359 219.679 172.262C218.462 164.578 217.397 160.621 214.734 154.382C212.908 149.969 209.18 138.557 206.441 129.046C203.778 119.46 200.278 108.732 198.756 105.08C195.561 97.6995 191.224 90.3193 191.909 93.5148C194.419 105.612 194.343 145.709 191.604 176.827C189.55 201.25 188.865 230.39 190.006 246.444C192.593 281.215 198.376 312.105 206.212 332.42C211.538 346.191 212.832 351.136 214.049 361.179C214.734 366.505 217.092 381.266 219.375 394.048C233.222 471.958 237.179 506.12 237.407 551.923C237.559 568.053 237.331 572.77 236.266 577.335C235.581 580.454 234.744 583.269 234.364 583.65C233.679 584.335 232.69 574.9 230.331 543.553C227.744 508.859 226.603 498.816 223.407 483.447C220.516 469.219 211.843 440.687 206.821 428.97C205.68 426.155 202.941 416.797 200.81 408.199C190.539 366.734 175.094 329.452 150.899 287.53C141.617 271.476 129.976 253.368 128.378 252.455C127.541 252.075 125.183 250.172 123.128 248.346C116.433 242.412 115.52 243.553 118.107 255.042C119.172 259.683 120.694 268.204 121.531 273.835C127.161 312.181 127.009 311.344 132.563 324.583C133.704 327.17 135.454 333.561 136.519 338.811C137.737 344.821 140.095 352.658 142.986 360.342C149.301 376.777 152.725 386.287 157.366 399.754C169.159 433.916 172.888 442.209 190.463 473.099C199.137 488.468 201.952 496.609 207.125 521.109C208.571 528.032 211.158 539.521 212.908 546.597C219.223 572.694 220.44 579.617 221.049 593.769C221.277 600.084 221.277 607.084 220.973 609.442L220.44 613.627L217.549 610.964L214.658 608.225L213.745 594.149C211.082 553.064 204.615 524.304 193.126 501.707C181.105 478.121 172.888 469.828 144.28 452.709C138.497 449.285 133.78 446.166 133.78 445.861C133.78 445.481 132.106 442.666 130.128 439.622C123.661 429.655 114.303 421.362 96.1185 409.189C79.5321 398.08 66.2934 391.765 59.8263 391.765C56.022 391.765 49.3266 388.874 39.5118 383.092C28.86 376.777 24.5232 374.722 20.1864 373.962L17.2191 373.429L18.6647 375.94C20.2624 378.831 27.4904 386.211 35.4032 393.135C38.6748 395.95 44.0007 401.961 48.4897 407.971C60.2828 423.721 69.1846 431.862 99.5423 454.535C127.237 475.306 133.248 481.316 147.323 502.392C154.323 512.891 159.04 519.054 164.366 524.608C175.55 536.249 178.366 541.347 190.083 570.183C194.191 580.226 200.202 594.758 203.397 602.519C210.245 618.953 212.147 624.583 212.147 627.855C212.071 630.061 211.995 629.985 210.701 626.485C209.028 621.768 206.136 616.062 202.256 609.747C198.224 603.127 195.408 597.421 189.322 583.65C183.007 569.498 180.724 565.922 174.257 559.759C160.486 546.825 127.617 530.163 106.77 525.674C97.8684 523.695 84.7058 522.554 59.2937 521.489C31.0664 520.348 23.6101 519.663 12.3497 517.38C8.62154 516.62 5.426 516.087 5.27383 516.239C5.12166 516.391 5.57817 517.38 6.26293 518.37C6.94768 519.435 9.99106 521.489 13.3388 523.011C19.882 525.978 19.2733 525.674 28.5556 530.999C36.5445 535.565 52.1417 541.803 74.8149 549.488C120.237 564.933 127.77 567.596 141.845 573.835C150.975 577.867 158.888 582.356 165.812 587.378C172.203 592.095 188.865 609.138 193.05 615.301C196.778 620.779 200.506 628.387 201.191 631.963C201.647 634.17 201.495 634.322 200.05 633.942C199.137 633.713 195.561 630.898 192.137 627.779C182.246 618.725 173.344 615.453 154.171 613.779C141.389 612.714 113.39 614.007 108.292 615.986C98.3249 619.79 94.2924 620.855 87.4449 621.54C82.2711 622.072 78.543 622.985 75.6518 624.279C57.0111 632.8 20.795 633.561 2.61088 625.877C0.0240149 624.735 -0.280322 624.735 0.176184 625.801C1.62178 629.681 8.62154 635.387 16.8386 639.496C32.3598 647.332 60.5871 652.81 79.8364 651.745C88.7383 651.213 101.901 648.169 124.117 641.398C137.128 637.441 155.921 633.713 162.844 633.713C164.899 633.713 168.551 634.246 170.833 634.931C173.496 635.691 176.311 635.996 178.366 635.691L181.637 635.311L187.42 641.55C197.843 652.658 198.832 655.473 199.897 677.462L200.506 691.157L197.691 696.863C194.572 703.178 185.974 724.634 183.235 733.003C182.246 735.894 180.572 739.394 179.355 740.764C176.083 744.568 173.648 749.057 169.616 759.1C165.507 769.295 162.16 774.469 152.725 784.741C145.725 792.501 142.378 796.686 134.921 807.566C129.672 815.174 122.291 823.087 113.39 830.619C108.748 834.652 104.868 840.434 104.868 843.554C104.868 845.38 111.944 852.151 116.053 854.282L119.172 855.879L121.607 853.064C122.976 851.543 127.693 844.847 132.106 838.076C137.508 829.859 141.845 824.228 145.269 820.881C149.682 816.696 150.899 814.946 153.182 809.468C155.236 804.599 157.747 800.718 163.073 794.023C170.833 784.284 173.04 780.328 175.627 771.426C177.529 764.807 180.116 759.481 185.061 751.872C189.398 745.177 190.996 741.373 199.897 717.406C209.864 690.624 213.593 683.548 226.907 665.669C242.352 645.05 244.559 642.311 249.048 638.963C256.961 632.952 272.406 626.333 284.427 623.822C286.71 623.29 296.829 622.605 306.872 622.301C325.132 621.692 325.132 621.692 336.545 618.496C351.305 614.464 354.501 614.084 384.478 613.171C414.836 612.258 429.9 610.355 453.182 604.725C472.583 600.008 491.452 591.867 504.463 582.585C510.093 578.476 511.158 577.411 511.919 574.748C512.376 572.998 514.43 569.27 516.484 566.379C522.19 558.238 524.245 554.814 524.853 551.847C525.614 548.651 525.082 546.216 523.56 546.216C522.267 546.216 520.669 547.966 514.354 556.564C503.702 571.096 499.061 572.846 460.943 576.574C426.248 580.074 419.553 580.378 400.836 579.846C391.402 579.541 378.924 579.541 372.989 579.846C342.403 581.291 311.589 591.03 289.601 606.171C285.492 608.986 278.036 614.084 273.014 617.583C265.33 622.909 253.08 629.909 251.406 629.909C251.178 629.909 250.95 628.54 250.95 626.866C250.95 624.583 251.483 623.214 253.309 621.159C256.428 617.583 268.525 608.529 277.579 602.899C284.427 598.715 323.306 578.4 332.36 574.368C344.99 568.661 386.684 544.771 403.042 533.815C406.086 531.76 411.26 528.869 414.455 527.424C427.161 521.717 430.128 519.815 442.302 509.696C446.106 506.576 452.421 501.555 456.378 498.588C464.899 492.12 469.921 487.023 475.17 479.262C479.355 473.099 479.735 472.719 490.235 461.763C494.039 457.806 502.637 447.992 509.408 440.079C516.18 432.09 523.256 423.873 525.082 421.819C526.908 419.688 528.886 416.645 529.418 414.971C529.951 413.297 532.005 408.123 533.984 403.558C537.636 395.113 540.07 386.363 540.07 381.722C540.07 379.287 539.842 379.44 529.723 389.483C524.093 395.113 517.321 402.341 514.81 405.46C511.082 410.025 509.18 411.699 505.148 413.678C499.898 416.34 497.159 418.243 482.779 429.199C477.985 432.851 468.475 439.242 461.627 443.503C436.824 458.948 431.726 462.295 417.346 473.099C398.858 486.947 396.119 489.305 382.195 502.848C367.435 517.228 361.805 522.174 338.827 541.043C328.404 549.64 314.48 561.585 308.013 567.52C291.199 582.965 251.939 615.605 248.135 617.279C243.342 619.409 242.885 618.573 246.385 613.855C249.428 609.747 253.004 606.779 265.863 597.649C273.699 592.095 276.362 589.432 279.786 583.269C282.829 577.715 303.068 554.281 312.426 545.303C318.817 539.141 327.263 532.673 333.273 529.173C335.327 528.032 337.686 525.978 338.599 524.684C339.512 523.315 343.545 518.978 347.577 515.022C352.903 509.696 355.642 506.272 357.848 502.087C359.751 498.588 363.326 493.87 367.359 489.534C372.304 484.284 375.196 480.175 379.456 472.567C382.5 467.089 386.76 460.622 388.891 458.187C390.945 455.752 395.13 449.97 398.173 445.329C401.216 440.764 405.477 434.905 407.608 432.394C409.738 429.96 412.401 425.699 413.466 422.96C417.803 412.46 419.096 410.178 425.031 402.265C428.455 397.7 433.4 389.711 436.291 384.081C440.552 375.864 442.53 372.972 447.628 367.57C450.976 363.918 454.932 359.277 456.301 357.223C460.03 351.821 465.736 339.343 468.931 329.376C470.453 324.583 473.268 315.985 475.17 310.355L478.67 300.16L478.594 283.726C478.442 267.139 478.975 259.987 480.953 249.259C482.17 242.868 481.714 238.912 479.355 236.325C478.214 235.032 478.062 235.032 477.149 237.618C476.692 239.14 475.855 244.923 475.475 250.477C474.562 261.357 473.42 266.607 470.301 274.519C466.953 283.041 456.758 302.823 452.041 309.975C449.53 313.703 446.182 319.181 444.584 322.148C439.411 331.659 437.509 334.246 433.704 337.137C428.987 340.637 424.042 348.093 414.531 365.897C405.249 383.396 403.119 386.515 388.51 403.558C381.663 411.547 374.891 419.764 373.37 421.819C368.652 428.362 359.37 444.187 351.077 460.165C335.936 489.001 320.339 511.674 295.079 541.575C288.688 549.108 286.786 552.531 282.981 562.879C279.786 571.629 277.732 574.824 271.264 581.291C268.145 584.411 263.504 589.432 260.917 592.4C256.656 597.497 253.08 600.236 250.95 600.236C250.493 600.236 252.091 597.725 254.374 594.682C256.885 591.487 262.21 582.052 267.46 571.705C280.395 546.064 297.97 517.685 313.72 496.762C324.98 481.773 327.491 477.36 331.98 464.806C333.501 460.393 337.306 451.415 340.425 444.796C346.208 432.47 347.425 428.894 349.479 417.634C350.316 413.221 351.457 409.949 353.055 407.363C357.544 400.211 359.598 395.95 360.816 391.385C366.142 371.146 372.989 340.865 374.967 328.235C378.011 309.214 379.456 303.66 383.184 296.203C389.423 283.802 392.315 271.932 397.793 236.705C400.532 218.978 400.608 217.684 398.173 207.185C397.184 202.62 395.967 194.098 395.434 188.24C394.901 181.24 393.836 174.621 392.315 168.838C390.565 162.371 390.032 158.491 390.032 154.078C390.108 149.361 389.728 147.154 388.282 143.654C386.76 140.078 386.38 137.948 386.38 132.394C386.38 125.242 385.01 119.916 382.88 119.079C382.271 118.851 381.739 118.775 381.663 118.851C381.663 118.927 381.358 131.177 381.054 146.013C380.445 177.436 380.75 175.838 371.163 204.902C364.924 223.999 364.087 227.119 356.707 260.216C354.196 271.4 350.392 286.769 348.262 294.453C346.131 302.138 343.088 313.246 341.414 319.105C339.816 324.963 337.61 334.55 336.469 340.408C335.404 346.267 333.197 358.06 331.523 366.657C329.925 375.255 327.947 386.363 327.11 391.461C325.436 401.276 323.154 409.493 319.35 418.471C318.056 421.59 314.709 430.796 311.817 438.938C309.002 447.079 303.372 462.676 299.416 473.556C295.383 484.436 290.59 497.979 288.612 503.609C284.731 514.946 281.84 521.109 276.666 529.097C271.493 537.01 270.58 539.217 265.406 554.966C260.461 570.031 256.352 579.998 255.743 578.4C254.526 575.052 264.189 538.456 272.254 516.163C274.84 509.011 279.101 497.218 281.688 489.914C284.351 482.61 288.231 472.567 290.438 467.621C295.231 456.817 295.916 454.915 302.763 432.927C313.796 397.319 316.763 381.874 318.665 348.397C320.491 315.757 321.784 299.703 323.154 292.095C328.252 263.944 328.708 260.368 330.078 236.173C331.067 219.054 331.599 215.63 336.164 195.468C341.414 172.49 341.795 169.675 341.262 155.524C340.501 137.263 338.447 122.275 334.186 105.308C333.121 101.123 331.447 93.667 330.458 88.7215C329.469 83.7761 328.023 78.6784 327.263 77.385C325.893 75.1025 322.013 71.6026 321.48 72.2873C321.328 72.4395 321.632 75.8633 322.165 79.8197C323.763 91.2323 324.295 112.384 323.306 124.329C321.784 142.513 319.121 155.067 314.328 166.556C308.47 180.631 307.328 183.979 305.426 192.653C301.166 211.598 298.731 235.792 297.361 272.313C294.546 350.604 294.09 355.853 286.253 404.7C278.34 453.926 275.906 465.491 262.515 515.402C259.548 526.282 256.428 538.684 255.439 543.021C254.45 547.282 253.537 550.629 253.385 550.477C253.08 550.173 259.167 502.544 262.058 482.306C266.243 453.394 271.188 428.742 276.134 411.623C278.416 404.015 278.569 402.493 279.177 385.07C279.634 373.049 280.395 363.234 281.384 357.071C283.362 344.669 283.362 326.637 281.308 302.366C279.329 278.78 278.569 244.162 279.786 233.738C280.319 229.477 282.068 220.423 283.666 213.576C288.003 195.848 288.46 190.903 288.003 171.121C287.547 153.621 286.557 143.35 283.286 122.959C282.297 116.568 280.775 105.917 279.862 99.2212C279.025 92.5258 276.971 81.1892 275.297 74.1134C270.351 52.4293 269.591 44.0601 271.949 35.843C273.319 31.1257 273.014 28.0063 269.667 15.3002C268.602 11.3438 267.536 6.32226 267.232 4.03973C266.699 -0.220991 265.863 -0.981834 263.808 1.14853Z" fill="black"/>
</svg>
